<?xml version="1.0" encoding="UTF-8" standalone="no"?>
<!-- Created with Inkscape (http://www.inkscape.org/) -->

<svg
   width="34.824001mm"
   height="34.372063mm"
   viewBox="20 20 40.255818 39.733387"
   version="1.1"
   id="svg1"
   xml:space="preserve"
   inkscape:version="1.4 (e7c3feb100, 2024-10-09)"
   sodipodi:docname="icon.svg"
   xmlns:inkscape="http://www.inkscape.org/namespaces/inkscape"
   xmlns:sodipodi="http://sodipodi.sourceforge.net/DTD/sodipodi-0.dtd"
   xmlns="http://www.w3.org/2000/svg"
   xmlns:svg="http://www.w3.org/2000/svg"><sodipodi:namedview
     id="namedview1"
     pagecolor="#ffffff"
     bordercolor="#000000"
     borderopacity="0.25"
     inkscape:showpageshadow="2"
     inkscape:pageopacity="0.0"
     inkscape:pagecheckerboard="0"
     inkscape:deskcolor="#d1d1d1"
     inkscape:document-units="mm"
     inkscape:zoom="1.9099422"
     inkscape:cx="186.13128"
     inkscape:cy="101.05018"
     inkscape:window-width="1920"
     inkscape:window-height="1043"
     inkscape:window-x="0"
     inkscape:window-y="0"
     inkscape:window-maximized="1"
     inkscape:current-layer="layer1"
     showgrid="false" /><defs
     id="defs1" /><g
     inkscape:label="Layer 1"
     inkscape:groupmode="layer"
     id="layer1"
     transform="translate(-49.665856,-69.444937)"><g
       id="g1"
       transform="translate(2.3121736,2.2821673)"><path
         style="fill:#52b3b8;fill-opacity:1"
         d="m 84.577793,124.37081 c -7.301197,-1.04019 -13.406347,-7.18595 -14.628801,-14.42222 -1.324613,-6.92662 2.094541,-14.464272 8.246867,-17.948522 6.599812,-3.980764 15.808598,-3.325872 21.44128,2.074941 4.906831,4.52966 6.994591,11.950921 4.775111,18.306431 -2.17358,6.82286 -8.786623,11.96264 -15.971485,12.19951 -1.290383,0.0635 -2.586709,-0.0113 -3.862972,-0.21014 z m 7.831628,-21.65157 c 2.407643,-1.00085 4.672463,-2.65722 5.967744,-4.955915 0.390861,-1.716885 -1.322306,-3.030951 -2.42747,-4.097236 -3.729089,-3.198418 -9.368219,-3.380606 -13.719962,-1.424317 -1.709601,0.754538 -3.625917,2.506258 -2.883617,4.5669 0.9455,1.915404 2.736416,3.267878 4.394679,4.550428 1.325864,0.87025 2.778856,1.37315 4.383587,1.53182 1.404207,0.24271 2.923636,0.30843 4.285039,-0.17168 z"
         id="path20027" /><path
         style="fill:#aabc46;fill-opacity:1"
         d="m 84.577793,124.37081 c -3.547678,-0.70783 -6.895939,-2.44914 -9.620676,-4.81523 -1.169515,-0.69922 -1.104476,-2.13794 0.296682,-2.13416 -0.0018,-1.20069 -2.340031,-2.98128 -1.616294,-3.51496 2.880309,1.43755 6.038099,2.49911 9.276248,2.60865 1.329548,-0.32549 1.903035,-2.33893 1.510427,-3.70472 0.01656,-1.88287 0.583917,-3.58638 1.457148,-5.22605 0.986108,-1.33811 2.108932,-2.43043 3.682915,-3.07552 1.581429,-0.49319 2.441688,-2.02447 4.191912,-2.41715 1.896102,-1.09468 3.802058,-2.551824 4.712621,-4.595291 -0.04541,-1.831521 -1.751767,-3.05166 -2.894492,-4.314652 -0.474412,-0.493607 -3.026335,-2.855009 -1.082947,-2.376367 5.373713,2.174347 9.685523,7.091825 10.515153,12.91285 1.41291,8.38726 -3.77162,17.54394 -12.006735,20.08054 -2.708372,0.87137 -5.619931,1.01374 -8.421962,0.57206 z"
         id="path20026" /></g></g></svg>
